<?xml version="1.0" encoding="utf-8"?>
<!-- Generator: Adobe Illustrator 24.0.3, SVG Export Plug-In . SVG Version: 6.00 Build 0)  -->
<svg version="1.1" id="Layer_1" xmlns="http://www.w3.org/2000/svg" xmlns:xlink="http://www.w3.org/1999/xlink" x="0px" y="0px"
	 viewBox="0 0 200 200" style="enable-background:new 0 0 200 200;" xml:space="preserve">
<style type="text/css">
	.st0{fill:#38C7BD;}
</style>
<g>
	<g>
		<path class="st0" d="M150.72,158.85v14.67c0,1.37-1.11,2.48-2.48,2.48c-1.37,0-2.48-1.11-2.48-2.48v-14.67
			c0-11.42-9.24-20.66-20.66-20.66c-5.41,0-10.31-2.75-13.12-7.37c-0.71-1.17-0.34-2.7,0.83-3.41c1.17-0.71,2.7-0.34,3.41,0.83
			c1.9,3.12,5.22,4.98,8.88,4.98C139.26,133.22,150.72,144.68,150.72,158.85L150.72,158.85z M107.39,133.96
			c0.29,1.34-0.56,2.66-1.9,2.96c-6.53,1.42-13.18,0-18.47-3.61c-5.24,5.61-12.16,4.89-11.23,4.89c-11.42,0-20.66,9.24-20.66,20.66
			v14.67c0,1.37-1.11,2.48-2.48,2.48c-1.37,0-2.48-1.11-2.48-2.48v-14.67c0-14.16,11.46-25.63,25.63-25.63
			c5.73,0,10.38-4.62,10.38-10.35v-0.65c-10.84-5.18-18.45-16.07-18.91-28.75c-4.46-1.07-7.78-5.07-7.78-9.81V70.78
			c-0.14-6.3,0.8-22.08,12.31-33.17c14.21-13.7,36.99-12.83,53.75-4.76c1.63,0.79,1.88,2.99,0.52,4.14
			c8.49,2.07,15.81,7.29,20.51,14.76c0.24,0.38,0.69,0.99,0.57,1.95c-0.07,0.6-0.25,1.11-0.71,1.57c-3.03,3.07-4.69,7.14-4.69,11.45
			v16.94c0,1.37-1.11,2.48-2.48,2.48c-1.37,0-2.48-1.11-2.48-2.48V66.71c0-4.98,1.7-9.7,4.82-13.5
			c-4.76-6.81-12.19-11.19-20.59-12.09l-4.36-0.47c-2.55-0.27-3.05-3.79-0.68-4.77l1.98-0.82c-25.85-9.01-53.49,1-53.49,35.67v12.9
			c0,1.97,1.14,3.68,2.79,4.54V72.1c0-9.58,7.8-17.38,17.38-17.38h31.66c9.58,0,17.38,7.8,17.38,17.38v20.33
			c0,21.59-21.1,38-42.57,31.68c-0.14,1.77-0.58,3.48-1.3,5.07c4.18,2.87,9.45,4.03,14.66,2.89
			C105.78,131.77,107.1,132.62,107.39,133.96L107.39,133.96z M100.44,120.48c15.57,0,28.24-12.67,28.24-28.24V72.1
			c0-6.85-5.57-12.41-12.41-12.41H84.61c-6.85,0-12.42,5.57-12.42,12.42v20.14C72.2,107.81,84.87,120.48,100.44,120.48
			L100.44,120.48z M125.58,163.27h-7.45c-1.37,0-2.48,1.11-2.48,2.48c0,1.37,1.11,2.48,2.48,2.48h7.45c1.37,0,2.48-1.11,2.48-2.48
			C128.07,164.39,126.95,163.27,125.58,163.27L125.58,163.27z M125.58,163.27"/>
	</g>
</g>
</svg>
