<svg xmlns="http://www.w3.org/2000/svg" viewBox="0 0 65 65"><defs><style>.cls-1{fill:none;}.cls-2{fill:#d4e1f4;}.cls-3{fill:#2179b5;}.cls-4{fill:#00b3cc;}</style></defs><title>Asset 11</title><g id="Layer_2" data-name="Layer 2"><g id="Layer_1-2" data-name="Layer 1"><rect class="cls-1" width="65" height="65"></rect><path class="cls-2" d="M15.34,37.81a1.09,1.09,0,0,0-.26,0c.35.82.72,1.82,1.13,3a27.23,27.23,0,0,0,1.5,3.65,4.14,4.14,0,0,0,.85-2C17.46,39.48,16.66,37.81,15.34,37.81Z"></path><path class="cls-2" d="M8.66,39v-.77A6.87,6.87,0,0,0,8,35.55c-.16-.38-.33-.77-.5-1.14A10.59,10.59,0,0,1,6.4,31.29c0-2.39,1.38-3.94,3.52-3.94a10.66,10.66,0,0,1,2.42.6,11.17,11.17,0,0,0,3,.68h0a11.15,11.15,0,0,0,3-.68,10.44,10.44,0,0,1,2.42-.59,3.67,3.67,0,0,1,.66.05A3.26,3.26,0,0,0,18,24.62a10.68,10.68,0,0,0-2.42.59,11.09,11.09,0,0,1-3,.68h0a10.78,10.78,0,0,1-3-.69,11.18,11.18,0,0,0-2.43-.59c-2.13,0-3.52,1.55-3.52,3.94a10.52,10.52,0,0,0,1.07,3.11c.17.38.34.77.5,1.15a7,7,0,0,1,.7,2.68v.15c0,.21,0,.42,0,.63,0,3.47.5,7.23,1.5,8.25a.67.67,0,0,0,.19.14,11.91,11.91,0,0,0,1.19-2.6C8.7,41.07,8.66,40,8.66,39Z"></path><path class="cls-2" d="M49.28,38.6c0-.12,0-.24,0-.36a2.26,2.26,0,0,0,0-.26s0-.1,0-.16a8.59,8.59,0,0,0-.69-2.27h0c-.16-.38-.33-.77-.5-1.15A10.8,10.8,0,0,1,47,31.3c0-2.4,1.38-3.95,3.52-3.95A10.54,10.54,0,0,1,53,28a11.15,11.15,0,0,0,3,.68h0A11.17,11.17,0,0,0,59,28a10.56,10.56,0,0,1,2.42-.59,4.89,4.89,0,0,1,.66.05,3.26,3.26,0,0,0-3.4-2.79,10.56,10.56,0,0,0-2.42.59,11.17,11.17,0,0,1-3,.68h0a11.17,11.17,0,0,1-3-.68,10.66,10.66,0,0,0-2.42-.6c-2.14,0-3.52,1.55-3.52,3.94a10.45,10.45,0,0,0,1.06,3.11c.17.38.34.77.5,1.15h0a8.14,8.14,0,0,1,.68,2.27.78.78,0,0,1,0,.16,2.09,2.09,0,0,1,0,.25v.37a33.4,33.4,0,0,0,.37,5.38,7.77,7.77,0,0,0,1,3.19l.08.09a.85.85,0,0,0,.19.14,11.36,11.36,0,0,0,1.19-2.61C49.32,40.93,49.27,39.74,49.28,38.6Z"></path><path class="cls-2" d="M56,37.81a1.24,1.24,0,0,0-.27,0c.35.82.72,1.82,1.14,3,.1.27.2.56.31.87l.09.24c0,.14.1.27.16.41a.78.78,0,0,0,.05.14l0,.12s0,.1,0,.15l.05.11a1.34,1.34,0,0,0,.07.18l0,.07a1.34,1.34,0,0,0,.07.18l0,.06a1,1,0,0,1,.07.15l0,.08.06.13a.36.36,0,0,0,0,.09.61.61,0,0,1,0,.12l0,.08.06.11,0,.07,0,.09,0,.06a.41.41,0,0,1,0,.09l0,0a4.11,4.11,0,0,0,.86-2C58.08,39.48,57.29,37.81,56,37.81Z"></path><path class="cls-3" d="M63.49,32.51H62.9a11.68,11.68,0,0,0,1.19-4c0-3.5-2.19-5.85-5.44-5.85a11.09,11.09,0,0,0-3,.68,11.18,11.18,0,0,1-2.43.59h0a10.66,10.66,0,0,1-2.42-.6,11.17,11.17,0,0,0-3-.68c-3.2,0-5.44,2.41-5.44,5.86a10.75,10.75,0,0,0,1.23,3.89c.16.37.33.75.48,1.11a6.44,6.44,0,0,1,.55,1.91c0,1.91,0,8.33,2,10.4a2.36,2.36,0,0,0,1.7.76c1.45,0,2.19-1.95,3.49-5.69a32.64,32.64,0,0,1,1.43-3.66A27.84,27.84,0,0,1,55,41.47c1.25,3.48,1.86,5,3.12,5,2.24,0,2.86-3.19,3.07-4.24a45.32,45.32,0,0,0,.58-5.87c0-.27,0-.52,0-.74a4.54,4.54,0,0,1,.36-1.2h.88V50.89H1.92V34.43H3.69A3.46,3.46,0,0,1,4,35.56c0,.19,0,.42,0,.69,0,2.4.2,7.81,2,9.68a2.36,2.36,0,0,0,1.71.76c1.44,0,2.19-2,3.49-5.71a31.21,31.21,0,0,1,1.43-3.68,29.38,29.38,0,0,1,1.75,4.2c1.25,3.47,1.86,5,3.11,5,2.24,0,2.87-3.24,3.07-4.31a43.24,43.24,0,0,0,.58-5.95c0-.28,0-.53,0-.75a8.17,8.17,0,0,1,.63-1.94v0c.1-.27.22-.54.34-.81a12.56,12.56,0,0,0,1.27-4.16c0-3.5-2.18-5.85-5.44-5.85a11,11,0,0,0-3,.68A11.18,11.18,0,0,1,12.6,24a10.66,10.66,0,0,1-2.42-.6,11.15,11.15,0,0,0-3-.68c-3.2,0-5.44,2.41-5.44,5.86A10.89,10.89,0,0,0,3,32.44l0,.07H1.51A1.52,1.52,0,0,0,0,34V51.3a1.52,1.52,0,0,0,1.51,1.51h62A1.52,1.52,0,0,0,65,51.3V34A1.52,1.52,0,0,0,63.49,32.51ZM61,32c-.12.29-.24.57-.35.85a8.65,8.65,0,0,0-.77,2.56c0,.23,0,.49,0,.78a42.7,42.7,0,0,1-.55,5.67,5.05,5.05,0,0,1-1,2.65l0,0a.41.41,0,0,0,0-.09l0-.06,0-.09,0-.07L58.08,44l0-.08,0-.12a.36.36,0,0,1,0-.09l-.06-.13a.36.36,0,0,0,0-.09l-.06-.14,0-.06a1.34,1.34,0,0,1-.07-.18l0-.08a.87.87,0,0,1-.07-.17l-.05-.11a.88.88,0,0,1,0-.15l0-.12a.78.78,0,0,1-.05-.14c-.06-.14-.11-.27-.16-.41l-.09-.24c-.11-.31-.21-.6-.31-.87-1.33-3.67-2.15-5.75-3.62-5.75-1.31,0-2,1.7-3.18,5.23a22.35,22.35,0,0,1-1.82,4.36.85.85,0,0,1-.19-.14L48,44.43a7.74,7.74,0,0,1-1.05-3.19,34.58,34.58,0,0,1-.36-5.38v-.37a2.25,2.25,0,0,0,0-.26s0-.1,0-.15a8.14,8.14,0,0,0-.68-2.27h0c-.16-.38-.33-.77-.5-1.15a10.55,10.55,0,0,1-1.06-3.11c0-2.39,1.38-3.94,3.52-3.94a11.12,11.12,0,0,1,2.42.59,10.86,10.86,0,0,0,3,.69h0a11.17,11.17,0,0,0,3-.68,10.44,10.44,0,0,1,2.42-.59c2.59,0,3.52,2,3.52,3.93A12,12,0,0,1,61,32ZM7.17,24.61a11.18,11.18,0,0,1,2.43.59,10.78,10.78,0,0,0,3,.69h0a11.09,11.09,0,0,0,3-.68A10.68,10.68,0,0,1,18,24.62c2.6,0,3.52,2,3.52,3.93A11.91,11.91,0,0,1,20.42,32l-.36.85a8.58,8.58,0,0,0-.76,2.56c0,.23,0,.48,0,.77a44.76,44.76,0,0,1-.55,5.68,5.3,5.3,0,0,1-1,2.65,26.81,26.81,0,0,1-1.49-3.65c-1.33-3.67-2.15-5.75-3.62-5.75-1.31,0-2,1.7-3.19,5.23A21.81,21.81,0,0,1,7.6,44.66a.52.52,0,0,1-.19-.14c-1-1-1.49-4.78-1.49-8.25v-.78a7,7,0,0,0-.7-2.68c-.16-.38-.33-.77-.5-1.14a10.66,10.66,0,0,1-1.07-3.12C3.65,26.16,5,24.61,7.17,24.61Z"></path><path class="cls-2" d="M29,38.22v-.13A.66.66,0,0,1,29,38a7.92,7.92,0,0,0-.7-2.42h0c-.16-.38-.33-.77-.5-1.15a10.41,10.41,0,0,1-1.06-3.1c0-2.4,1.38-3.94,3.52-3.94a10.56,10.56,0,0,1,2.42.59,11.17,11.17,0,0,0,3,.68h0a11.17,11.17,0,0,0,3-.68,11.12,11.12,0,0,1,2.42-.59,4.89,4.89,0,0,1,.66.05,3.26,3.26,0,0,0-3.4-2.79,10.44,10.44,0,0,0-2.42.59,11.17,11.17,0,0,1-3,.68h0a11.17,11.17,0,0,1-3-.68,10.66,10.66,0,0,0-2.42-.6c-2.14,0-3.52,1.55-3.52,3.95A10.5,10.5,0,0,0,25,31.64c.17.38.34.77.5,1.15h0a7.85,7.85,0,0,1,.7,2.42v.27c-.09,4.83.68,8.2,1.49,9a.62.62,0,0,0,.19.14,12,12,0,0,0,1.19-2.59A34.93,34.93,0,0,1,29,38.22Z"></path><path class="cls-2" d="M35.65,37.79h-.12l-.14,0c.35.83.72,1.82,1.14,3,.36,1,.84,2.35,1.24,3.18a4.23,4.23,0,0,0,.25.47,4.21,4.21,0,0,0,.86-2C37.77,39.47,37,37.79,35.65,37.79Z"></path><path class="cls-4" d="M38.34,22.68a11.09,11.09,0,0,0-3,.68,10.62,10.62,0,0,1-2.43.59h0a10.56,10.56,0,0,1-2.42-.59,11.23,11.23,0,0,0-3-.69c-3.21,0-5.44,2.41-5.44,5.86a10.91,10.91,0,0,0,1.22,3.89c.17.37.34.75.49,1.11a6.53,6.53,0,0,1,.55,1.91c0,.72,0,2.07.1,3.59.18,2.53.67,5.52,1.94,6.82a2.81,2.81,0,0,0,.8.56l.22.08a2.11,2.11,0,0,0,.45.1h.23c1.45,0,2.19-2,3.49-5.69A32.64,32.64,0,0,1,33,37.25a28.91,28.91,0,0,1,1.75,4.2c1.25,3.48,1.86,5,3.12,5,2.24,0,2.86-3.24,3.06-4.31a45,45,0,0,0,.59-5.94c0-.28,0-.54,0-.75a2.94,2.94,0,0,1,.12-.59c0-.11.07-.23.11-.35l.06-.17c.12-.33.25-.64.33-.83s.23-.55.35-.83a12.42,12.42,0,0,0,1.28-4.17C43.78,25,41.59,22.68,38.34,22.68Zm2.39,9.26c-.12.29-.24.58-.36.85a8.63,8.63,0,0,0-.76,2.57c0,.22,0,.48,0,.76A44.76,44.76,0,0,1,39,41.8a5.05,5.05,0,0,1-1,2.65,4.23,4.23,0,0,1-.25-.47c-.4-.83-.88-2.18-1.24-3.18-1.33-3.67-2.15-5.75-3.62-5.75h-.12c-1,.08-1.6,1.2-2.43,3.43l-.63,1.79a22.09,22.09,0,0,1-1.82,4.36.62.62,0,0,1-.19-.14c-.81-.82-1.58-4.19-1.49-9v-.27a7.85,7.85,0,0,0-.7-2.42h0c-.16-.38-.33-.77-.5-1.15A10.5,10.5,0,0,1,24,28.54c0-2.4,1.38-3.95,3.52-3.95a10.66,10.66,0,0,1,2.42.6,11.17,11.17,0,0,0,3,.68h0a11.17,11.17,0,0,0,3-.68,10.44,10.44,0,0,1,2.42-.59c2.59,0,3.52,2,3.52,3.93A11.88,11.88,0,0,1,40.73,31.94Z"></path><path class="cls-4" d="M47.46,14.17a.6.6,0,0,0-.47-.58,4.66,4.66,0,0,1-3.67-3.67.59.59,0,0,0-.69-.46.6.6,0,0,0-.46.46,4.68,4.68,0,0,1-3.67,3.67.59.59,0,0,0,0,1.15,4.68,4.68,0,0,1,3.67,3.67.58.58,0,0,0,.69.46.6.6,0,0,0,.46-.46A4.66,4.66,0,0,1,47,14.74a.6.6,0,0,0,.47-.57Zm-4.72,2.41a5.72,5.72,0,0,0-2.41-2.41,5.8,5.8,0,0,0,2.41-2.42,5.91,5.91,0,0,0,2.41,2.42A5.83,5.83,0,0,0,42.74,16.58Z"></path></g></g></svg>