<?xml version="1.0" encoding="utf-8"?>
<!-- Generator: Adobe Illustrator 25.3.1, SVG Export Plug-In . SVG Version: 6.00 Build 0)  -->
<svg version="1.1" id="Layer_1" xmlns="http://www.w3.org/2000/svg" xmlns:xlink="http://www.w3.org/1999/xlink" x="0px" y="0px"
	 viewBox="0 0 64 64" style="enable-background:new 0 0 64 64;" xml:space="preserve">
<style type="text/css">
	.st0{fill:#166088;}
</style>
<g>
	<path class="st0" d="M7.5,19.1c-0.1,0-0.3,0-0.4-0.1c-0.5-0.2-0.7-0.8-0.5-1.3s0.7-0.8,1.2-0.7c0.5,0.1,0.9,0.7,0.7,1.2l-1-0.2
		l1,0.3c0,0.1,0,0.2-0.1,0.3C8.2,18.9,7.9,19.1,7.5,19.1z M22.5,39.7c-0.2,0-0.4,0-0.5-0.1c-0.5-0.3-0.6-0.9-0.3-1.4
		c0.1-0.2,0.2-0.5,0.2-0.9v-2.4c0-0.3-0.2-0.5-0.3-0.6c-0.6-0.6-0.9-1.4-0.9-2.2s0.3-1.6,0.9-2.2l0.5-0.5c0.2-0.2,0.3-0.5,0.3-0.8
		s-0.1-0.6-0.3-0.8L21.3,27c-0.2-0.2-0.5-0.3-0.8-0.3h-1.1c-0.8,0-1.6-0.3-2.2-0.9l-0.9-0.9c-0.2-0.2-0.5-0.3-0.8-0.3H13
		c-0.3,0-0.6,0.1-0.8,0.3l-3.5,3.5c-0.2,0.2-0.6,0.3-0.9,0.3c-0.3-0.1-0.6-0.3-0.7-0.6c-0.8-1.9-1.2-4-1.2-6c0-0.6,0.4-1,1-1
		s1,0.4,1,1c0,1.3,0.2,2.6,0.5,3.8l2.3-2.3c0.6-0.6,1.4-0.9,2.2-0.9h2.5c0.8,0,1.6,0.3,2.2,0.9l0.9,0.9c0.2,0.2,0.5,0.3,0.8,0.3h1.1
		c0.8,0,1.6,0.3,2.2,0.9l0.7,0.7c0.6,0.6,0.9,1.4,0.9,2.2c0,0.8-0.3,1.6-0.9,2.2l-0.5,0.5c-0.3,0.3-0.3,0.6-0.3,0.8s0.1,0.5,0.3,0.8
		c0.6,0.6,0.9,1.3,0.9,2v2.4c0,0.8-0.2,1.4-0.5,1.9C23.1,39.5,22.8,39.7,22.5,39.7z"/>
	<path class="st0" d="M41.9,58c-2.8,0-5.2-1.9-5.8-4.6l-0.8-3.2c-0.1-0.5,0.2-1.1,0.7-1.2c0.5-0.1,1.1,0.2,1.2,0.7L38,53
		c0.4,1.8,2,3,3.9,3c0.9,0,1.8-0.3,2.5-0.9c0.7-0.6,1.2-1.4,1.4-2.3l1-4.9c0.5-2.5,1-5.1,1.5-7.4c0.4-2,1.1-4,1.9-5.7
		c-0.7-0.2-1.4-0.6-2-1.1l-1-1c-0.8-0.8-1.3-2-1.3-3.1v-0.2c0-0.8-0.4-1.4-0.8-1.8c-0.8-0.8-1.2-1.9-1.2-3v-0.5
		c0-1.7,1.4-3.1,3.1-3.1h0.8c0.3,0,0.6-0.1,0.8-0.3c0.2-0.2,0.3-0.5,0.3-0.8c0-0.8,0.3-1.6,0.9-2.2l1.6-1.6c0.7-0.7,1.5-1.1,2.4-1.1
		H54c-2.3-3.9-6.3-6.5-10.8-6.9c-2-0.2-3.9,0.1-5.8,0.7C33.8,10,30,10,26.5,8.8c-1.9-0.6-3.8-0.9-5.8-0.7C16.3,8.4,12.3,11,10,14.9
		c-0.3,0.5-0.9,0.6-1.4,0.3S8,14.3,8.3,13.8C11,9.4,15.6,6.5,20.6,6c2.3-0.2,4.5,0.1,6.6,0.8c3.2,1.1,6.5,1.1,9.6,0
		c2.1-0.7,4.3-1,6.6-0.8c5.8,0.5,10.9,4.2,13.2,9.5c0.1,0.3,0.1,0.7-0.1,1c-0.2,0.3-0.6,0.4-1,0.4h-1.7c-0.2,0-0.5,0.1-1,0.5
		L51.2,19c-0.2,0.2-0.3,0.5-0.3,0.7c0,0.8-0.3,1.7-0.9,2.3c-0.6,0.6-1.4,0.9-2.2,0.9H47c-0.6,0-1.1,0.5-1.1,1.1v0.5
		c0,0.6,0.2,1.2,0.6,1.6c0.9,0.9,1.4,2,1.4,3.2v0.2c0,0.6,0.3,1.3,0.7,1.7l1,1c0.4,0.4,1.1,0.7,1.7,0.7h0.5c0.4,0,0.7,0.2,0.9,0.5
		s0.2,0.7,0,1c-1.1,1.9-1.9,4.1-2.4,6.4c-0.5,2.3-1,4.9-1.5,7.4l-1,4.9c-0.3,1.4-1,2.6-2.1,3.4C44.6,57.5,43.3,58,41.9,58z"/>
	<path class="st0" d="M22.1,58c-2.8,0-5.3-2-5.9-4.8c-0.6-2.8-1.3-6.6-2.1-10l-0.2-1.1c-0.1-0.3,0-0.6,0.2-0.8s0.5-0.4,0.8-0.4l0,0
		c1.6,0,3.5,0,3.5,0c0.2,0,0.5-0.1,0.7-0.2c0.4-0.3,1.1-0.3,1.4,0.1c0.3,0.4,0.3,1.1-0.1,1.4c-0.5,0.4-1.2,0.7-1.9,0.7
		c0,0-1.1,0-2.3,0c0.7,3.4,1.5,7.1,2,9.9c0.4,1.8,2,3.2,3.9,3.2c0.9,0,1.8-0.3,2.5-0.8c0.7-0.6,1.2-1.3,1.4-2.2l2.2-8.8
		c0.4-1.8,2-3,3.9-3c1.9,0,3.4,1.2,3.9,3.1l0.4,1.7c0.1,0.5-0.2,1.1-0.7,1.2c-0.5,0.1-1.1-0.2-1.2-0.7l-0.4-1.8
		c-0.3-1.1-1.2-1.5-1.9-1.5s-1.7,0.4-1.9,1.5l-2.2,8.8c-0.3,1.3-1,2.4-2.1,3.3C24.7,57.5,23.4,58,22.1,58z M32,16
		c-6.3,0-11.3-3-11.5-3.1c-0.5-0.3-0.6-0.9-0.3-1.4c0.3-0.5,0.9-0.6,1.4-0.3c0,0,4.8,2.9,10.5,2.9s10.4-2.8,10.5-2.9
		c0.5-0.3,1.1-0.1,1.4,0.3c0.3,0.5,0.1,1.1-0.3,1.4C43.3,13,38.3,16,32,16z M52.6,35h-1.2c-1.2,0-2.3-0.5-3.1-1.3l-1-1
		c-0.8-0.8-1.3-2-1.3-3.1v-0.2c0-0.8-0.4-1.4-0.8-1.8c-0.8-0.8-1.2-1.9-1.2-3v-0.5c0-1.7,1.4-3.1,3.1-3.1h0.8c0.3,0,0.6-0.1,0.8-0.3
		c0.2-0.2,0.3-0.5,0.3-0.8c0-0.8,0.3-1.6,0.9-2.2l1.6-1.6c0.7-0.7,1.5-1.1,2.4-1.1h1.7c0.1,0,0.2,0,0.3,0c1.8,0.1,3.4,1.4,3.8,3.2
		c0.2,0.7,0.3,1.4,0.3,2.2c0,0.5,0.1,1,0.1,1.6c0,1.1-0.1,2.2-0.3,3.3c-0.1,0.5-0.6,0.9-1.2,0.8c-0.5-0.1-0.9-0.6-0.8-1.2
		c0.2-1,0.3-2,0.3-2.9c0-0.5,0-1-0.1-1.4c-0.1-0.7-0.2-1.3-0.3-1.9c-0.2-0.9-1-1.6-2-1.6h-0.1h-1.7c-0.2,0-0.5,0.1-1,0.5l-1.6,1.6
		c-0.2,0.2-0.3,0.5-0.3,0.7c0,0.8-0.3,1.7-0.9,2.3c-0.6,0.6-1.4,0.9-2.2,0.9h-0.8c-0.6,0-1.1,0.5-1.1,1.1v0.5c0,0.6,0.2,1.2,0.6,1.6
		c0.9,0.9,1.4,2,1.4,3.2v0.2c0,0.6,0.3,1.3,0.7,1.7l1,1c0.4,0.4,1.1,0.7,1.7,0.7h1.2c0.6,0,1.3-0.3,1.7-0.8l0,0
		c0.9-1.1,1.7-2.3,2.2-3.6c0.2-0.5,0.8-0.7,1.3-0.5s0.7,0.8,0.5,1.3c-0.6,1.5-1.5,2.8-2.5,4.1l0,0C55,34.4,53.9,35,52.6,35z"/>
	<path class="st0" d="M18.3,43c-0.4,0-2,0-3.4,0h-0.2c-1.5,0-2.9-1.1-3.3-2.6v-0.1c-0.7-2.7-1.8-5-3.4-6.9c-0.5-0.5-1-1.4-1.4-2.1
		c-0.8-1.3-0.6-3,0.5-4.1L7.4,27l3.5-3.5c0.6-0.6,1.4-0.9,2.2-0.9h2.5c0.8,0,1.6,0.3,2.2,0.9l0.9,0.9c0.2,0.2,0.5,0.3,0.8,0.3h1.1
		c0.8,0,1.6,0.3,2.2,0.9l0.7,0.7c0.6,0.6,0.9,1.4,0.9,2.2c0,0.8-0.3,1.6-0.9,2.2L23,31.2c-0.3,0.3-0.3,0.6-0.3,0.8
		c0,0.2,0.1,0.5,0.3,0.8c0.6,0.6,0.9,1.3,0.9,2v2.4c0,0.8-0.2,1.4-0.5,1.9s-0.9,0.6-1.4,0.3s-0.6-0.9-0.3-1.4
		c0.1-0.2,0.2-0.5,0.2-0.9v-2.4c0-0.3-0.2-0.5-0.3-0.6c-0.6-0.6-0.9-1.4-0.9-2.2s0.3-1.6,0.9-2.2l0.5-0.5c0.2-0.2,0.3-0.5,0.3-0.8
		s-0.1-0.6-0.3-0.8L21.3,27c-0.2-0.2-0.5-0.3-0.8-0.3h-1.1c-0.8,0-1.6-0.3-2.2-0.9l-0.9-0.9c-0.2-0.2-0.5-0.3-0.8-0.3H13
		c-0.3,0-0.6,0.1-0.8,0.3l-3.7,3.7C8,29.1,8,29.7,8.3,30.3c0.4,0.7,0.9,1.4,1.3,1.9c1.8,2.1,3,4.7,3.8,7.7V40c0.2,0.6,0.7,1,1.3,1
		h0.2c1.6,0,3.5,0,3.5,0c0.2,0,0.5-0.1,0.7-0.2c0.4-0.3,1.1-0.3,1.4,0.1c0.3,0.4,0.3,1.1-0.1,1.4C19.8,42.7,19.1,43,18.3,43
		C18.4,43,18.4,43,18.3,43z"/>
</g>
</svg>
