<?xml version="1.0" encoding="UTF-8"?> <svg xmlns="http://www.w3.org/2000/svg" height="512px" viewBox="-92 0 511 511.998" width="512px" class=""><g><path d="m30.695312 169.644531c-2.429687-6.300781-4.488281-12.144531-6.289062-17.859375-1.246094-3.949218-5.457031-6.144531-9.410156-4.898437-3.949219 1.246093-6.144532 5.457031-4.898438 9.410156 1.894532 6.015625 4.058594 12.148437 6.605469 18.75 1.492187 3.871094 5.835937 5.785156 9.695313 4.296875 3.867187-1.492188 5.789062-5.835938 4.296874-9.699219zm0 0" data-original="#000000" class="active-path" data-old_color="#57a9f2" fill="#57a9f2"></path><path d="m231.382812 0c-26.828124 0-45.847656 10.300781-57.082031 18.9375-6.066406 4.667969-14.539062 4.667969-20.605469 0-11.230468-8.636719-30.253906-18.9375-57.082031-18.9375-49.335937 0-96.113281 36.933594-96.113281 99.429688 0 8.003906.65625 16.339843 1.953125 24.773437.628906 4.09375 4.457031 6.898437 8.554687 6.273437 4.09375-.628906 6.902344-4.457031 6.269532-8.554687-1.179688-7.683594-1.777344-15.25-1.777344-22.492187 0-53.15625 39.089844-84.429688 81.113281-84.429688 22.613281 0 38.550781 8.609375 47.9375 15.828125 1.742188 1.339844 3.589844 2.476563 5.507813 3.40625-7.28125 3.15625-15.929688 5.804687-25.492188 6.652344-4.125.367187-7.175781 4.007812-6.808594 8.132812.347657 3.902344 3.621094 6.839844 7.460938 6.839844.222656 0 .445312-.011719.671875-.03125 33.542969-2.976563 56.980469-24.265625 57.960937-25.171875.183594-.167969.355469-.34375.515626-.523438 9.496093-7.066406 25.128906-15.132812 47.015624-15.132812 41.5625 0 81.117188 30.722656 81.117188 84.429688 0 38.492187-16.277344 74.449218-30.636719 106.175781-1.039062 2.289062-2.058593 4.550781-3.0625 6.777343-31.542969 0-41.390625-.003906-229.605469 0-1.9375-4.3125-4.136718-9.144531-6.160156-13.644531-1.699218-3.777343-6.140625-5.460937-9.917968-3.765625-3.777344 1.699219-5.464844 6.140625-3.765626 9.917969 2.414063 5.363281 4.863282 10.730469 7.082032 15.695313 1.847656 4.128906 5.96875 6.796874 10.496094 6.796874h24.855468c-.832031 2.347657-1.285156 4.871094-1.285156 7.5 0 11.878907 9.253906 21.636719 20.929688 22.445313v15.109375c-11.675782.808594-20.929688 10.566406-20.929688 22.445312 0 11.878907 9.253906 21.636719 20.929688 22.445313v15.109375c-11.675782.808594-20.929688 10.566406-20.929688 22.445312 0 11.878907 9.253906 21.636719 20.929688 22.441407v15.109375c-11.675782.808594-20.929688 10.566406-20.929688 22.445312s9.253906 21.636719 20.929688 22.445313v2.105469c0 40.015624 32.554687 72.566406 72.570312 72.566406s72.570312-32.554688 72.570312-72.566406v-2.105469c11.675782-.808594 20.929688-10.566407 20.929688-22.445313s-9.253906-21.636718-20.929688-22.445312v-15.109375c11.675782-.808594 20.929688-10.5625 20.929688-22.441407 0-11.878906-9.253906-21.640624-20.929688-22.445312v-15.109375c11.675782-.808594 20.929688-10.566406 20.929688-22.445313 0-11.878906-9.253906-21.636718-20.929688-22.445312v-15.109375c11.675782-.808594 20.929688-10.566406 20.929688-22.445313 0-2.628906-.453125-5.152343-1.285156-7.5h24.855468c4.527344 0 8.648438-2.667968 10.496094-6.800781 1.285156-2.875 2.613282-5.804687 3.964844-8.792969 14.242188-31.46875 31.96875-70.632812 31.96875-112.359374 0-62.289063-46.660156-99.429688-96.117188-99.429688zm-9.8125 257.382812v15h-115.140624v-15zm0 60v15h-115.140624v-15zm0 60v15h-115.140624v-15zm20.929688 37.5c0 4.136719-3.363281 7.5-7.5 7.5-13.976562 0-24.117188 0-38.945312 0-4.144532 0-7.5 3.355469-7.5 7.5 0 4.140626 3.355468 7.5 7.5 7.5h25.515624v2.046876c0 31.746093-25.828124 57.570312-57.570312 57.570312-31.746094 0-57.570312-25.824219-57.570312-57.570312v-2.046876h57.570312c4.140625 0 7.5-3.359374 7.5-7.5 0-4.144531-3.359375-7.5-7.5-7.5-20.332031 0-49.492188 0-71 0-4.136719 0-7.5-3.363281-7.5-7.5 0-4.136718 3.363281-7.5 7.5-7.5h142c4.136719 0 7.5 3.363282 7.5 7.5zm0-60c0 4.136719-3.363281 7.5-7.5 7.5-14.386719 0-122.582031 0-142 0-4.136719 0-7.5-3.363281-7.5-7.5 0-4.136718 3.363281-7.5 7.5-7.5h142c4.136719 0 7.5 3.363282 7.5 7.5zm0-60c0 4.136719-3.363281 7.5-7.5 7.5-21.6875 0-127.039062 0-142 0-4.136719 0-7.5-3.363281-7.5-7.5 0-4.136718 3.363281-7.5 7.5-7.5h142c4.136719 0 7.5 3.363282 7.5 7.5zm0-60c0 4.136719-3.363281 7.5-7.5 7.5-14.386719 0-122.582031 0-142 0-4.136719 0-7.5-3.363281-7.5-7.5 0-4.136718 3.363281-7.5 7.5-7.5h142c4.136719 0 7.5 3.363282 7.5 7.5zm0 0" data-original="#000000" class="active-path" data-old_color="#57a9f2" fill="#57a9f2"></path></g></svg> 